PathFileType	4	(X/Y/Z)	./resultDataOpenSim/trcMotMarkerGrf/sub06/qtm-03-06.trc
DataRate	CameraRate	NumFrames	NumMarkers	Units	OrigDataRate	OrigDataStartFrame	OrigNumFrames
250.000000	250.000000	11	24	m	250.000000	466	532
Frame#	Time	L.Toe.Tip			R.Toe.Tip			L.Ankle.Lat			R.Ankle.Lat			L.Ankle.Med			R.Ankle.Med			L.Heel			R.Heel			L.Knee.Lat			R.Knee.Lat			L.Knee.Med			R.Knee.Med			L.Thigh.Upper			R.Thigh.Upper			L.ASIS			R.ASIS			V.Sacral			L.Acromium			R.Acromium			C7			L.Elbow			R.Elbow			L.Wrist.Lat			R.Wrist.Lat
		X1	Y1	Z1	X2	Y2	Z2	X3	Y3	Z3	X4	Y4	Z4	X5	Y5	Z5	X6	Y6	Z6	X7	Y7	Z7	X8	Y8	Z8	X9	Y9	Z9	X10	Y10	Z10	X11	Y11	Z11	X12	Y12	Z12	X13	Y13	Z13	X14	Y14	Z14	X15	Y15	Z15	X16	Y16	Z16	X17	Y17	Z17	X18	Y18	Z18	X19	Y19	Z19	X20	Y20	Z20	X21	Y21	Z21	X22	Y22	Z22	X23	Y23	Z23	X24	Y24	Z24

466	1.86	1.65971	0.033651764	-0.029543508	1.361803	0.087335365	0.17491904	1.5338491	0.067828303	-0.048698102	1.3037916	0.21023554	0.18207891	1.533193	0.081131687	0.03851997	1.3407739	0.2026883	0.10128606	1.4598902	0.041190638	-0.0034459677	1.2585787	0.23297319	0.11332574	1.6097859	0.43639964	-0.06255247	1.6054311	0.43560949	0.21184631	1.5827083	0.43347685	0.055726137	1.6102707	0.41649267	0.075462793	1.5253288	0.82535315	-0.12575604	1.4995007	0.78610863	0.2155734	1.5925526	0.86632582	-0.075646514	1.5832373	0.84947691	0.17110363	1.3988182	0.93377481	0.052609029	1.5092545	1.3335839	-0.14641315	1.5221783	1.3414033	0.21689049	1.4361936	1.3726989	0.035486138	1.4461134	1.0193884	-0.18654716	1.4591956	1.0267962	0.28573631	1.5781471	0.81649609	-0.23249218	1.6230631	0.84347959	0.279202
467	1.864	1.6597176	0.033650715	-0.029552224	1.3800705	0.086316586	0.17478554	1.533856	0.067925423	-0.048643174	1.3187907	0.20749255	0.18123702	1.5334517	0.081250381	0.038553621	1.3560143	0.20054615	0.10047708	1.4599065	0.041375894	-0.003322792	1.2729763	0.22876241	0.11230059	1.6106604	0.43631291	-0.062387575	1.6161149	0.43877251	0.21126365	1.5829236	0.43363751	0.055988389	1.6215308	0.42043125	0.07480378	1.5302417	0.82619218	-0.12613988	1.5069677	0.78823961	0.21526804	1.5979391	0.86756063	-0.076091401	1.5889624	0.85142457	0.17059602	1.4043091	0.93498734	0.052189257	1.5153485	1.3352419	-0.14648919	1.5276062	1.3426692	0.21672005	1.4419602	1.3739459	0.035231622	1.4543889	1.0203523	-0.18757312	1.4622336	1.0284292	0.28524312	1.5901022	0.81918497	-0.23198819	1.6246013	0.84370039	0.27994756
468	1.868	1.6597271	0.033648801	-0.029559292	1.3985575	0.085227199	0.17465028	1.5338661	0.06802256	-0.048569652	1.3339396	0.2045516	0.18041195	1.5336871	0.081358034	0.038582931	1.3713645	0.19831047	0.099636365	1.4599308	0.041562572	-0.0031590814	1.2875766	0.22434874	0.11131511	1.6114916	0.43620681	-0.062239315	1.6267258	0.44187648	0.21068063	1.5831467	0.43381079	0.05625538	1.6322855	0.42440045	0.074170448	1.5351867	0.82696651	-0.12649682	1.5131791	0.79074631	0.21524501	1.6032986	0.86874207	-0.076501254	1.5946895	0.8533432	0.17007702	1.4098554	0.93612975	0.051803894	1.5214646	1.3368186	-0.14655355	1.5330379	1.3438667	0.21657088	1.4477191	1.3751254	0.035002837	1.4626586	1.0212759	-0.18858963	1.4656932	1.0300158	0.28485331	1.6018217	0.82191386	-0.23149688	1.6261517	0.84392473	0.28070568
469	1.872	1.6597395	0.033647551	-0.029565058	1.4174231	0.084127103	0.17452499	1.5338813	0.068122247	-0.04848191	1.3491747	0.20144453	0.17962135	1.5338782	0.081462626	0.038614171	1.3868407	0.19598535	0.098762839	1.4599707	0.041747716	-0.0029691412	1.3023343	0.21974278	0.11039643	1.6122993	0.43607993	-0.062105401	1.6372359	0.44491458	0.21008759	1.5835672	0.43393916	0.056483818	1.6427945	0.42830018	0.073620193	1.540312	0.82766299	-0.12677506	1.5180625	0.7933258	0.21543772	1.6086433	0.86985896	-0.076888502	1.60043	0.8552196	0.16955388	1.4154169	0.93722343	0.051438277	1.5276224	1.3383584	-0.14662875	1.5384719	1.3449917	0.21643371	1.45347	1.376248	0.034786545	1.4709245	1.0221583	-0.18959077	1.4694365	1.0315893	0.28454068	1.6132823	0.82468999	-0.23101727	1.6277246	0.84414591	0.28148183
470	1.876	1.6597549	0.033646372	-0.029570318	1.4365815	0.083028129	0.1743924	1.5339006	0.068227264	-0.048389193	1.3644359	0.1981996	0.17888727	1.5340591	0.081576798	0.03864335	1.4024382	0.19353871	0.09791042	1.4600291	0.041935239	-0.0027789037	1.3171892	0.21494597	0.10957248	1.6130896	0.43593709	-0.061990291	1.6476191	0.44789292	0.20946839	1.5842232	0.43401267	0.056661776	1.6531149	0.43207325	0.073168759	1.545705	0.82828034	-0.12697946	1.5221076	0.79561168	0.21570954	1.613982	0.87090353	-0.077260009	1.6062189	0.85704345	0.16903539	1.42098	0.93826977	0.051074604	1.5338258	1.3398851	-0.14672856	1.5439063	1.3460384	0.21630006	1.4592098	1.3773165	0.034568173	1.4791903	1.0230027	-0.19058394	1.4731219	1.0331598	0.28424153	1.6246215	0.82749056	-0.23052694	1.6293215	0.84435562	0.28228382
471	1.88	1.6597745	0.033644483	-0.029576465	1.4557296	0.081889188	0.17421915	1.5339228	0.068339267	-0.048302446	1.3797374	0.19482521	0.17821004	1.5342705	0.081708335	0.03866676	1.4181529	0.19093938	0.097146934	1.4601064	0.042127956	-0.00260944	1.3321171	0.20996103	0.10885341	1.6138524	0.43578487	-0.0619038	1.6578694	0.45082377	0.20881253	1.5850283	0.43406522	0.056806364	1.6631972	0.43570589	0.072794545	1.5513256	0.82881831	-0.12713786	1.5263149	0.79748847	0.21596727	1.6193244	0.8718741	-0.077615921	1.6120691	0.85881303	0.1685223	1.4265533	0.93926033	0.050706658	1.5400426	1.3413681	-0.14684097	1.5493404	1.3470037	0.21616699	1.464939	1.3783277	0.034339156	1.4874618	1.0238122	-0.19158198	1.4765474	1.0347178	0.28390471	1.6359989	0.8302884	-0.23000281	1.6309386	0.8445458	0.28311771
472	1.884	1.6598003	0.033641756	-0.029584787	1.4746601	0.080676336	0.17399209	1.5339479	0.068458071	-0.048229116	1.3951405	0.19131619	0.1775735	1.5345182	0.081854769	0.038689188	1.4339801	0.18819547	0.096473095	1.4602011	0.042322457	-0.0024628227	1.347158	0.20480446	0.10823325	1.614582	0.43562931	-0.061852858	1.6680013	0.45370651	0.20812538	1.5859001	0.43412975	0.056936809	1.6730092	0.43919616	0.072478785	1.5569197	0.82928143	-0.12729658	1.5315784	0.79905942	0.21619146	1.6246784	0.87276894	-0.077954373	1.6179475	0.86053151	0.16800544	1.4321334	0.94018936	0.050339892	1.5462324	1.3427502	-0.14694359	1.5547756	1.3478873	0.2160353	1.4706639	1.379273	0.03409794	1.4957393	1.0245838	-0.19258872	1.4797719	1.0362318	0.28352053	1.6474745	0.83308031	-0.22943545	1.6325756	0.8447073	0.28398367
473	1.888	1.659833	0.033637015	-0.029596469	1.4934058	0.079388301	0.17373218	1.5339782	0.068582178	-0.04816917	1.4106966	0.18766636	0.17696446	1.5347672	0.082009007	0.03872164	1.4498962	0.18534254	0.095836327	1.4603068	0.042518441	-0.0023254313	1.3623747	0.19950722	0.10770263	1.6152886	0.43547285	-0.06183607	1.6780329	0.45652442	0.20742134	1.5868277	0.43421302	0.057055046	1.6825543	0.44254152	0.072212667	1.5621579	0.8296827	-0.12750543	1.5379969	0.80045868	0.21637034	1.6300434	0.87358284	-0.078276523	1.6238121	0.86219722	0.16747474	1.4377037	0.941051	0.049984278	1.5523905	1.3440024	-0.14702827	1.560211	1.3486867	0.21590925	1.4763888	1.380142	0.033849457	1.5040119	1.0253118	-0.19359229	1.4829688	1.0376626	0.28311535	1.6590534	0.83587367	-0.22882472	1.6342389	0.84483167	0.28487702
474	1.892	1.6598731	0.033627204	-0.029612953	1.5121384	0.078032957	0.17347253	1.5340169	0.068710171	-0.0481161	1.4264296	0.1838762	0.17638033	1.5349717	0.082169286	0.038772517	1.4658623	0.18240675	0.095215053	1.4604111	0.042726804	-0.0021821393	1.3777388	0.19410399	0.10725163	1.6159885	0.43531371	-0.061844994	1.6879612	0.45926186	0.20670666	1.5878408	0.43430263	0.057149528	1.691855	0.44574661	0.071977149	1.5670145	0.83003526	-0.12776473	1.5450559	0.80178202	0.21648514	1.6354058	0.87431047	-0.078587394	1.6296573	0.86379743	0.16692979	1.4432702	0.94183684	0.049649985	1.5585394	1.3451363	-0.14709938	1.565643	1.3493982	0.21579626	1.4821121	1.3809314	0.033607565	1.5122631	1.0259913	-0.19456568	1.4862374	1.0389903	0.2827249	1.6707853	0.83866017	-0.22816763	1.6359325	0.84491702	0.2857929
475	1.896	1.6599202	0.033610296	-0.029635069	1.5310221	0.076621102	0.17322751	1.5340651	0.068842422	-0.048061616	1.4423491	0.17995364	0.17582726	1.5351051	0.082339973	0.038842564	1.4818532	0.17939061	0.094641228	1.4605011	0.042963596	-0.002026229	1.3930919	0.18862381	0.10687078	1.6166926	0.43515325	-0.061869597	1.6977579	0.461913	0.2059771	1.5889405	0.43438725	0.057219993	1.7009376	0.44882672	0.071736977	1.571886	0.83034537	-0.12800482	1.552226	0.80308919	0.21655401	1.6407495	0.87494907	-0.078892358	1.6355197	0.86531327	0.16638234	1.4488557	0.94254393	0.049345923	1.5646947	1.3461797	-0.1471596	1.5710691	1.350021	0.21570206	1.4878308	1.3816432	0.033392743	1.5204831	1.0266188	-0.19548786	1.4895765	1.0402136	0.28237755	1.6827054	0.84142599	-0.22746061	1.6376349	0.84496852	0.28672981
476	1.9	1.6599716	0.033588618	-0.029661499	1.5501228	0.075189184	0.17298863	1.5341203	0.06898145	-0.04799976	1.4584637	0.1759109	0.17531122	1.5351787	0.082523164	0.03892551	1.4979412	0.17628445	0.094134613	1.4605733	0.043236423	-0.0018583654	1.408342	0.18306074	0.10654743	1.6174044	0.43500042	-0.061904342	1.707395	0.46447743	0.20522538	1.5900926	0.43446516	0.05728571	1.7098247	0.4518024	0.071454045	1.5771277	0.8306109	-0.12816629	1.559198	0.80439846	0.21663139	1.6460912	0.87549942	-0.079188704	1.6414373	0.86673017	0.16584688	1.4544435	0.94318578	0.049079839	1.570855	1.3471486	-0.14720873	1.5764891	1.3505568	0.21562634	1.4935442	1.3822804	0.033216437	1.528685	1.0271913	-0.19637769	1.4929559	1.0413354	0.28208478	1.6946895	0.84418069	-0.22671308	1.6392926	0.8449911	0.28769139
